# xmcd CD database file
#
# Track frame offsets:
#	150
#	23526
#	43014
#	63461
#	80006
#	98415
#	119766
#	139692
#	153675
#	172531
#	204380
#	226011
#	246561
#	270246
#	292523
#
# Disc length: 4196 seconds
#
# Revision: 0
# Processed by: cddbd v1.4PL0 Copyright (c) Steve Scherf et al.
# Submitted via: CDex 1.50
#
DISCID=bb10620f
DTITLE=Peru Bolo - Soncco'k
DYEAR=1900
DGENRE=New Age
TTITLE0=Der Ruf des Metasequoia
TTITLE1=Time To Say Goodbye
TTITLE2=Scarborough Fair
TTITLE3=Only Time
TTITLE4=Sierra Madre
TTITLE5=Conquest of Paradise
TTITLE6=Exodos
TTITLE7=Pulancito
TTITLE8=Alto Preco
TTITLE9=Romeo y Julieta
TTITLE10=Chicuitita
TTITLE11=No Llores Por Mi Argentina
TTITLE12=Volveras
TTITLE13=Trilla
TTITLE14=El Condor Pasa
EXTD=
EXTT0=
EXTT1=
EXTT2=
EXTT3=
EXTT4=
EXTT5=
EXTT6=
EXTT7=
EXTT8=
EXTT9=
EXTT10=
EXTT11=
EXTT12=
EXTT13=
EXTT14=
PLAYORDER=
